<svg width="48" height="48" viewBox="0 0 48 48" fill="none" xmlns="http://www.w3.org/2000/svg">
<path fill-rule="evenodd" clip-rule="evenodd" d="M27.9429 12.8462V23.8511L33.2118 29.1534C33.9221 29.8682 33.9221 31.0266 33.2118 31.7414C32.5015 32.4562 31.3505 32.4562 30.6402 31.7414L24.8387 25.9031C24.5064 25.5686 24.33 25.1375 24.3082 24.6995H24.3061V12.8462C24.3061 11.8357 25.1201 11.0165 26.1243 11.0165C27.1284 11.0165 27.9425 11.8357 27.9425 12.8462H27.9429ZM26.126 44.0004C22.8526 44.0004 19.7641 43.204 17.0413 41.7928C16.076 41.2925 15.7557 40.0602 16.36 39.1529C16.7073 38.6315 17.2783 38.3461 17.8656 38.3461C18.1488 38.3461 18.4358 38.4123 18.7032 38.5507C19.062 38.7364 19.4284 38.9091 19.8026 39.0682C21.8036 39.9197 23.9311 40.3516 26.126 40.3516C28.3209 40.3516 30.4488 39.9197 32.4494 39.0682C34.3838 38.2446 36.1217 37.0652 37.6154 35.5625C39.1086 34.0599 40.281 32.3105 41.0989 30.3638C41.945 28.35 42.3743 26.2091 42.3743 24.0002C42.3743 21.7913 41.945 19.65 41.0989 17.6366C40.2806 15.69 39.1086 13.941 37.6154 12.4379C36.1222 10.9352 34.3838 9.75536 32.4494 8.93225C30.4484 8.08076 28.3209 7.64879 26.126 7.64879C23.9311 7.64879 21.8036 8.08076 19.8026 8.93225C17.8682 9.75579 16.1303 10.9352 14.6366 12.4379C13.1434 13.9406 11.971 15.69 11.1531 17.6366C10.3604 19.5227 9.93369 21.521 9.88286 23.5824L11.0262 22.4318C11.3812 22.0746 11.8467 21.8958 12.3119 21.8958C12.777 21.8958 13.2425 22.0746 13.5975 22.4318C14.3078 23.1466 14.3078 24.305 13.5975 25.0198L9.35068 29.2935C8.99574 29.6507 8.53019 29.8295 8.06464 29.8295C7.59951 29.8295 7.13396 29.6507 6.77902 29.2935L2.53223 25.0193C1.82194 24.3045 1.82194 23.1462 2.53223 22.4314C2.88716 22.0742 3.35272 21.8954 3.81784 21.8954C4.28297 21.8954 4.74852 22.0742 5.10346 22.4314L6.25624 23.5914C6.47278 12.7341 15.285 4 26.126 4C26.1653 4 26.2054 4 26.2447 4C37.193 4.06447 46 12.9821 46 23.9998C46 35.0454 37.102 44 26.126 44V44.0004Z" fill="#9D9D9D"/>
</svg>
