<svg width="112" height="23" viewBox="0 0 112 23" fill="none" xmlns="http://www.w3.org/2000/svg">
<path d="M16.8106 9.87024C17.0339 9.87024 17.2239 10.084 17.2239 10.3025L17.5137 19.7743C17.5137 20.0498 17.3759 20.3253 17.1811 20.5106C15.5231 22.0781 12.9815 22.9997 10.3259 22.9997C4.35426 22.9997 0.37793 18.5773 0.37793 11.9461C0.37793 5.31485 4.35901 0.892456 10.3259 0.892456C12.3687 0.892456 14.5255 1.56698 16.1312 2.67376C16.3545 2.79727 16.4353 3.04427 16.3783 3.22478L14.9958 7.73742C14.915 7.95118 14.7203 8.04618 14.4685 7.98443C13.3331 7.30991 11.8699 6.9109 10.4874 6.9109C7.94578 6.9109 6.23078 8.93921 6.23078 11.9461C6.23078 14.9529 7.94578 17.043 10.4874 17.043C11.5088 17.043 12.2024 16.8292 12.5064 16.4587V14.6774H9.96483C9.71779 14.6774 9.55152 14.5539 9.52301 14.3401L10.0503 10.3928C10.0218 10.084 10.1881 9.87024 10.4922 9.87024H16.8011H16.8106Z" fill="white"/>
<path d="M28.1837 22.9999C22.2976 22.9999 18.3735 18.5775 18.3735 11.9748C18.3735 5.37208 22.2976 0.887939 28.1837 0.887939C34.0698 0.887939 37.9939 5.31033 37.9939 11.9748C37.9939 18.6392 34.0698 22.9999 28.1837 22.9999ZM28.1837 7.09638C25.9176 7.09638 24.3974 9.06294 24.3974 11.9795C24.3974 14.8961 25.9176 16.8627 28.1837 16.8627C30.4498 16.8627 31.97 14.8961 31.97 11.9795C31.97 9.06294 30.4498 7.09638 28.1837 7.09638Z" fill="white"/>
<path d="M45.6761 1.38196C50.5123 1.38196 53.4149 4.29855 53.4149 8.69244C53.4149 13.0863 50.5123 16.0029 45.6761 16.0029H44.5406V22.1449C44.5406 22.3586 44.3459 22.5724 44.0988 22.5724H39.1534C38.9586 22.5724 38.7686 22.3586 38.7686 22.1449V1.84272C38.7686 1.59571 38.9633 1.38196 39.1534 1.38196H45.6761ZM45.9231 10.5022C46.8922 10.5022 47.5526 9.76597 47.5526 8.69244C47.5526 7.6189 46.8875 6.88263 45.9231 6.88263H44.7544C44.6072 6.88263 44.4836 7.00138 44.4836 7.15339V10.2362C44.4836 10.3835 44.6024 10.507 44.7544 10.507H45.9231V10.5022Z" fill="white"/>
<path d="M59.5241 1.38196C59.7711 1.38196 59.9374 1.59571 59.9374 1.84272V22.1401C59.9374 22.3539 59.7711 22.5676 59.5241 22.5676H54.6309C54.4361 22.5676 54.2461 22.3539 54.2461 22.1401V1.84272C54.2461 1.59571 54.4409 1.38196 54.6309 1.38196H59.5241Z" fill="white"/>
<path d="M76.0093 17.043C76.2563 17.043 76.4226 17.2282 76.4226 17.4752L75.9095 22.1446C75.9095 22.3584 75.7432 22.5721 75.4962 22.5721H61.0398C60.8166 22.5721 60.655 22.3869 60.655 22.1446C60.655 22.0544 60.7643 21.7456 60.9306 21.3751L67.04 7.29091C67.116 7.11516 66.9877 6.91565 66.7929 6.91565H61.6194C61.4246 6.91565 61.2346 6.70189 61.2346 6.45488L61.7477 1.84724C61.7477 1.60023 61.9425 1.38647 62.1325 1.38647H75.3014C75.5485 1.38647 75.7147 1.57173 75.7147 1.84724C75.7147 1.97074 75.6055 2.308 75.4392 2.67852L69.3821 16.6725C69.306 16.8482 69.4343 17.0477 69.6291 17.0477H76.0045L76.0093 17.043Z" fill="white"/>
<path d="M91.8193 17.043C92.0664 17.043 92.2326 17.2282 92.2326 17.4752L91.7196 22.1446C91.7196 22.3584 91.5533 22.5721 91.3063 22.5721H76.8499C76.6266 22.5721 76.4651 22.3869 76.4651 22.1446C76.4651 22.0544 76.5744 21.7456 76.7406 21.3751L82.85 7.29091C82.926 7.11516 82.7978 6.91565 82.603 6.91565H77.4295C77.2347 6.91565 77.0447 6.70189 77.0447 6.45488L77.5577 1.84724C77.5577 1.60023 77.7525 1.38647 77.9426 1.38647H91.1115C91.3585 1.38647 91.5248 1.57173 91.5248 1.84724C91.5248 1.97074 91.4155 2.308 91.2492 2.67852L85.1921 16.6725C85.1161 16.8482 85.2444 17.0477 85.4392 17.0477H91.8146L91.8193 17.043Z" fill="white"/>
<path d="M111.563 22.1686C111.644 22.3539 111.535 22.5676 111.316 22.5676H105.844C105.596 22.5676 105.373 22.4156 105.264 22.1686L104.485 19.1475C104.456 19.0288 104.347 18.9433 104.224 18.9433H99.4443C99.3208 18.9433 99.2163 19.0288 99.183 19.1475L98.4039 22.1686C98.2947 22.4156 98.0714 22.5676 97.8243 22.5676H92.3515C92.1283 22.5676 92.019 22.3539 92.1045 22.1686L98.3517 1.78097C98.4324 1.59571 98.7365 1.38196 99.0168 1.38196H104.656C104.931 1.38196 105.235 1.59571 105.321 1.78097L111.568 22.1686H111.563ZM101.573 9.73747L100.428 14.2169C100.385 14.3879 100.513 14.5541 100.689 14.5541H102.979C103.155 14.5541 103.283 14.3879 103.24 14.2169L102.095 9.73747C102.024 9.46671 101.644 9.46671 101.573 9.73747Z" fill="white"/>
</svg>
